<svg width="39" height="26" viewBox="0 0 39 26" fill="none" xmlns="http://www.w3.org/2000/svg">
<rect y="-0.000320435" width="38.1875" height="26" rx="5" fill="#7D6F93"/>
<rect x="24.4312" y="3.59968" width="18.5969" height="10.8781" rx="4.65" transform="rotate(90 24.4312 3.59968)" fill="#7D6F93" stroke="#A4A3A6" stroke-width="0.7"/>
<path d="M-4.69987e-08 16.4528L10.0411 16.4528C11.7754 16.4528 13.2232 15.1297 13.3791 13.4024V13.4024C13.3972 13.202 13.3972 13.0004 13.3791 12.8001V12.8001C13.2232 11.0728 11.7754 9.74968 10.0411 9.74968L5.39007e-07 9.74968" stroke="#A4A3A6" stroke-width="0.7"/>
<path d="M38.1875 9.74968L27.9671 9.74968C26.2996 9.74968 24.8688 10.972 24.58 12.6143V12.6143C24.5122 13.0001 24.5134 13.4001 24.5853 13.7851V13.7851C24.8742 15.3317 26.2242 16.4528 27.7974 16.4528L38.1875 16.4528" stroke="#A4A3A6" stroke-width="0.7"/>
<line x1="19.0375" y1="-0.000320435" x2="19.0375" y2="3.65593" stroke="#A4A3A6" stroke-width="0.7"/>
<line x1="19.0375" y1="22.3434" x2="19.0375" y2="25.9997" stroke="#A4A3A6" stroke-width="0.7"/>
</svg>
